<?xml version="1.0" standalone="no"?>
<!DOCTYPE svg PUBLIC "-//W3C//DTD SVG 20010904//EN"
 "http://www.w3.org/TR/2001/REC-SVG-20010904/DTD/svg10.dtd">
<svg version="1.0" xmlns="http://www.w3.org/2000/svg"
 width="260.000000pt" height="260.000000pt" viewBox="0 0 260.000000 260.000000"
 preserveAspectRatio="xMidYMid meet">
<metadata>
Created by potrace 1.11, written by Peter Selinger 2001-2013
</metadata>
<g transform="translate(0.000000,260.000000) scale(0.100000,-0.100000)"
fill="#000000" stroke="none">
<path d="M1185 2228 c-3 -7 -151 -420 -329 -918 -178 -498 -327 -913 -331
-922 -7 -16 2 -18 92 -18 l100 0 12 42 c7 23 49 147 93 275 l80 233 388 0 388
0 91 -266 c50 -146 91 -270 91 -275 0 -5 48 -9 106 -9 81 0 105 3 101 13 -17
45 -243 672 -436 1212 l-229 640 -106 3 c-80 2 -108 -1 -111 -10z m271 -670
l160 -463 -163 -3 c-90 -1 -236 -1 -326 0 l-163 3 160 463 c88 254 162 462
166 462 3 0 78 -208 166 -462z"/>
<path d="M2326 237 c-19 -18 -46 -41 -60 -51 -26 -16 -28 -16 -54 3 -26 19
-27 19 -67 -2 -47 -24 -156 -30 -176 -9 -16 15 -69 16 -69 1 0 -8 -4 -8 -13 0
-11 8 -19 5 -35 -14 -12 -14 -28 -25 -36 -25 -8 0 -28 -11 -43 -24 -16 -14
-55 -38 -86 -54 -32 -17 -63 -34 -70 -40 -6 -5 -21 -12 -32 -15 -11 -2 213 -5
498 -6 l517 -1 0 75 c0 67 -2 75 -19 75 -10 0 -24 7 -31 15 -7 8 -19 15 -26
15 -13 0 -18 12 -15 35 1 6 -4 3 -11 -6 -16 -19 -60 -18 -66 2 -6 17 -50 59
-62 59 -5 0 -25 -15 -44 -33z"/>
<path d="M0 110 l0 -110 708 0 c660 1 705 2 677 17 -49 27 -127 42 -150 29
-11 -6 -23 -15 -26 -19 -8 -11 -73 -1 -102 15 -12 6 -45 13 -73 14 -61 3 -124
36 -192 99 -50 48 -79 55 -122 30 -14 -8 -44 -14 -67 -15 -27 0 -43 -5 -43
-12 -1 -22 -37 -58 -58 -58 -10 0 -34 -8 -53 -17 -19 -9 -50 -18 -70 -19 -20
-1 -41 -4 -45 -7 -10 -5 -141 56 -186 86 -15 10 -37 20 -50 22 -66 8 -104 20
-116 37 -26 36 -32 17 -32 -92z"/>
</g>
</svg>
